<?xml version="1.0" encoding="utf-8"?>
<!-- Generator: Adobe Illustrator 16.0.3, SVG Export Plug-In . SVG Version: 6.00 Build 0)  -->
<!DOCTYPE svg PUBLIC "-//W3C//DTD SVG 1.1//EN" "http://www.w3.org/Graphics/SVG/1.1/DTD/svg11.dtd">
<svg version="1.1" id="Capa_1" xmlns="http://www.w3.org/2000/svg" xmlns:xlink="http://www.w3.org/1999/xlink" x="0px" y="0px"
	 width="150px" height="150px" viewBox="0 0 150 150" enable-background="new 0 0 150 150" xml:space="preserve">
<path fill="#660C0C" d="M75.165,3.827c2.489,2.503,4.957,5.028,7.481,7.498c1.016,0.995,1.514,2.08,1.486,3.535
	c-0.068,4.051-0.023,8.106-0.023,12.414c0.589-0.309,0.973-0.5,1.35-0.708c1.114-0.615,2.193-1.3,3.346-1.839
	c4.575-2.151,5.344-1.994,8.846,1.489c9.496,9.448,18.986,18.902,28.525,28.307c0.948,0.937,1.383,1.809,0.858,3.042
	c-1.251,2.951-2.519,5.896-3.824,8.951c0.253,0.014,0.845,0.075,1.433,0.076c4.06,0.008,8.118-0.019,12.178,0.031
	c0.643,0.007,1.476,0.16,1.884,0.575c2.642,2.681,5.188,5.457,7.853,8.29c-2.476,2.503-5.203,5.315-8.013,8.047
	c-0.329,0.318-1.081,0.275-1.637,0.281c-4.517,0.02-9.029,0.01-13.894,0.01c0.467,0.748,0.775,1.263,1.104,1.766
	c1.612,2.453,2.853,5.064,3.022,8.035c0.041,0.708-0.233,1.658-0.72,2.141c-10.085,10.006-20.235,19.944-30.328,29.945
	c-0.925,0.915-1.93,1.188-2.971,0.814c-2.323-0.828-4.586-1.84-6.849-2.829c-0.662-0.291-1.24-0.769-2.149-1.345
	c0,3.006-0.306,5.746,0.063,8.392c0.713,5.073-0.89,8.915-4.967,11.974c-1.502,1.124-2.598,2.792-4.094,4.455
	c-2.858-2.939-5.422-5.521-7.9-8.189c-0.357-0.387-0.409-1.168-0.414-1.765c-0.036-4.12-0.02-8.237-0.021-12.354
	c0-0.615,0-1.234,0-2.23c-0.92,0.558-1.539,0.925-2.151,1.306c-2.494,1.545-5.107,2.851-8.119,2.66
	c-1.056-0.072-2.325-0.535-3.063-1.259c-9.688-9.501-19.278-19.103-28.939-28.632c-1.069-1.053-1.021-2.287-0.657-3.359
	c0.886-2.604,2.027-5.121,3.113-7.654c0.238-0.555,0.672-1.03,1.234-1.869c-2.097,0-3.859,0-5.622,0c-3.192,0-6.38,0.031-9.57-0.023
	c-0.636-0.013-1.46-0.162-1.87-0.574c-2.611-2.633-5.127-5.355-7.702-8.073c2.542-2.611,5.291-5.481,8.116-8.272
	c0.327-0.321,1.092-0.272,1.654-0.274c4.922-0.02,9.849-0.012,15.146-0.012c-0.52-0.797-0.862-1.354-1.233-1.894
	c-1.706-2.466-2.907-5.121-3.276-8.135c-0.149-1.244,0.107-2.188,1.041-3.112c9.868-9.732,19.686-19.517,29.563-29.238
	c0.536-0.527,1.594-1.018,2.237-0.854c2.439,0.625,4.826,1.466,7.189,2.351c0.896,0.337,1.673,1.005,2.783,1.696
	c0.052-0.736,0.114-1.264,0.119-1.791c0.012-4.001,0.057-8.004-0.01-12.004c-0.02-1.21,0.381-2.041,1.234-2.871
	c2.32-2.255,4.545-4.606,6.806-6.918C74.934,3.827,75.048,3.827,75.165,3.827z M110.081,39.567c-6.704,0-13.13-0.083-19.548,0.076
	c-1.196,0.03-2.563,0.819-3.51,1.646c-1.903,1.66-2.85,3.923-2.869,6.474c-0.037,5.562-0.022,11.124-0.019,16.687
	c0.003,0.437,0.101,0.873,0.147,1.289c5.539,0,10.936,0.255,16.303-0.064c6.547-0.391,9.491-3.825,9.494-10.286
	c0-0.579,0-1.159,0-1.738C110.081,49.025,110.081,44.401,110.081,39.567z M41.027,39.541c0,6.346,0.023,12.417-0.01,18.489
	c-0.014,2.505,1.02,4.548,3.169,5.577c2.14,1.022,4.526,1.89,6.856,2.058c4.612,0.33,9.261,0.135,13.895,0.144
	c0.552,0.002,1.107-0.071,1.632-0.108c0-6.469,0.326-12.786-0.105-19.051c-0.331-4.842-3.485-7.109-8.354-7.109
	c-1.274,0-2.55,0-3.824,0C49.952,39.541,45.616,39.541,41.027,39.541z M40.87,108.895c6.042,0,11.767,0.004,17.491,0
	c5.256,0,8.351-3.088,8.379-8.41c0.031-5.155,0.029-10.312,0.031-15.465c0-0.613-0.071-1.23-0.114-1.93
	c-5.911,0-11.652-0.255-17.36,0.074c-5.625,0.318-8.284,3.529-8.377,9.172c-0.014,0.867-0.048,1.736-0.05,2.605
	C40.865,99.507,40.87,104.074,40.87,108.895z M84.188,83.098c0,6.057-0.229,11.909,0.065,17.734
	c0.271,5.245,3.685,8.063,8.931,8.063c4.979,0.004,9.961,0,14.938,0c0.61,0,1.224,0,1.942,0c0-6.06,0.004-11.842-0.004-17.625
	c-0.004-3.94-1.609-6.237-5.316-7.606c-0.648-0.238-1.329-0.536-1.996-0.541C96.623,83.078,90.5,83.098,84.188,83.098z"/>
</svg>
